# Blender v3.1.2 OBJ File: ''
# www.blender.org
mtllib spherePiece.mtl
o Sphere_Sphere.001
v 0.000000 0.980785 -0.195090
v 0.000000 0.923880 -0.382683
v 0.000000 0.831470 -0.555570
v 0.000000 0.707107 -0.707107
v 0.000000 0.555570 -0.831470
v 0.000000 0.382683 -0.923880
v 0.000000 0.195090 -0.980785
v 0.038060 0.980785 -0.191342
v 0.074658 0.923880 -0.375330
v 0.108386 0.831470 -0.544895
v 0.137950 0.707107 -0.693520
v 0.162212 0.555570 -0.815493
v 0.180240 0.382683 -0.906127
v 0.191342 0.195090 -0.961940
v 0.195090 -0.000000 -0.980785
v 0.074658 0.980785 -0.180240
v 0.146447 0.923880 -0.353553
v 0.212608 0.831470 -0.513280
v 0.270598 0.707107 -0.653281
v 0.318190 0.555570 -0.768178
v 0.353553 0.382683 -0.853553
v 0.375330 0.195090 -0.906127
v 0.382683 -0.000000 -0.923879
v 0.108386 0.980785 -0.162212
v 0.212608 0.923880 -0.318190
v 0.308658 0.831470 -0.461940
v 0.392848 0.707107 -0.587938
v 0.461940 0.555570 -0.691342
v 0.513280 0.382683 -0.768178
v 0.544895 0.195090 -0.815493
v 0.555570 -0.000000 -0.831469
v 0.137950 0.980785 -0.137950
v 0.270598 0.923880 -0.270598
v 0.392848 0.831470 -0.392847
v 0.500000 0.707107 -0.500000
v 0.587938 0.555570 -0.587938
v 0.653281 0.382683 -0.653281
v 0.693520 0.195090 -0.693520
v 0.707107 -0.000000 -0.707107
v 0.162212 0.980785 -0.108386
v 0.318190 0.923880 -0.212607
v 0.461940 0.831470 -0.308658
v 0.587938 0.707107 -0.392847
v 0.691342 0.555570 -0.461940
v 0.768178 0.382683 -0.513280
v 0.815493 0.195090 -0.544895
v 0.831470 -0.000000 -0.555570
v 0.180240 0.980785 -0.074658
v 0.353554 0.923880 -0.146447
v 0.513280 0.831470 -0.212607
v 0.653281 0.707107 -0.270598
v 0.768178 0.555570 -0.318190
v 0.853553 0.382683 -0.353553
v 0.906127 0.195090 -0.375330
v 0.923879 -0.000000 -0.382683
v 0.191342 0.980785 -0.038060
v 0.375330 0.923880 -0.074658
v 0.544895 0.831470 -0.108386
v 0.693520 0.707107 -0.137950
v 0.815493 0.555570 -0.162212
v 0.906127 0.382683 -0.180240
v 0.961940 0.195090 -0.191342
v 0.980785 -0.000000 -0.195090
v 0.195090 0.980785 0.000000
v 0.382684 0.923880 0.000000
v 0.555570 0.831470 0.000000
v 0.707107 0.707107 0.000000
v 0.831469 0.555570 0.000000
v 0.923879 0.382683 0.000000
v 0.980785 0.195090 0.000000
v 1.000000 -0.000000 0.000000
v -0.000000 1.000000 0.000000
v 0.000001 -0.000000 -0.999999
vt 0.750000 0.750000
vt 0.750000 0.812500
vt 0.718750 0.812500
vt 0.718750 0.750000
vt 0.750000 0.687500
vt 0.718750 0.687500
vt 0.750000 0.625000
vt 0.718750 0.625000
vt 0.750000 0.562500
vt 0.718750 0.562500
vt 0.750000 0.500000
vt 0.718750 0.500000
vt 0.750000 0.937500
vt 0.734375 1.000000
vt 0.718750 0.937500
vt 0.750000 0.875000
vt 0.718750 0.875000
vt 0.687500 0.937500
vt 0.687500 0.875000
vt 0.687500 0.812500
vt 0.687500 0.750000
vt 0.687500 0.687500
vt 0.687500 0.625000
vt 0.687500 0.562500
vt 0.687500 0.500000
vt 0.703125 1.000000
vt 0.656250 0.687500
vt 0.656250 0.625000
vt 0.656250 0.562500
vt 0.656250 0.500000
vt 0.671875 1.000000
vt 0.656250 0.937500
vt 0.656250 0.875000
vt 0.656250 0.812500
vt 0.656250 0.750000
vt 0.625000 0.875000
vt 0.625000 0.812500
vt 0.625000 0.750000
vt 0.625000 0.687500
vt 0.625000 0.625000
vt 0.625000 0.562500
vt 0.625000 0.500000
vt 0.640625 1.000000
vt 0.625000 0.937500
vt 0.593750 0.625000
vt 0.593750 0.562500
vt 0.593750 0.500000
vt 0.609375 1.000000
vt 0.593750 0.937500
vt 0.593750 0.875000
vt 0.593750 0.812500
vt 0.593750 0.750000
vt 0.593750 0.687500
vt 0.562500 0.812500
vt 0.562500 0.750000
vt 0.562500 0.687500
vt 0.562500 0.625000
vt 0.562500 0.562500
vt 0.562500 0.500000
vt 0.578125 1.000000
vt 0.562500 0.937500
vt 0.562500 0.875000
vt 0.531250 0.562500
vt 0.531250 0.500000
vt 0.546875 1.000000
vt 0.531250 0.937500
vt 0.531250 0.875000
vt 0.531250 0.812500
vt 0.531250 0.750000
vt 0.531250 0.687500
vt 0.531250 0.625000
vt 0.500000 0.812500
vt 0.500000 0.750000
vt 0.500000 0.687500
vt 0.500000 0.625000
vt 0.500000 0.562500
vt 0.500000 0.500000
vt 0.515625 1.000000
vt 0.500000 0.937500
vt 0.500000 0.875000
vn -0.6600 0.5289 -0.5335
vn -0.6655 0.6185 -0.4178
vn 0.1092 0.8286 -0.5490
vn 0.1385 0.7041 -0.6965
vn -0.6555 0.4175 -0.6293
vn 0.1626 0.5528 -0.8173
vn -0.6521 0.2885 -0.7011
vn 0.1804 0.3805 -0.9070
vn -0.6501 0.1474 -0.7455
vn 0.1914 0.1939 -0.9622
vn -0.6105 -0.6105 -0.5045
vn 0.1484 -0.6494 -0.7459
vn -0.6785 0.7196 -0.1476
vn -0.6161 0.4908 0.6161
vn 0.0392 0.9796 -0.1971
vn -0.6717 0.6828 -0.2873
vn 0.0757 0.9217 -0.3804
vn 0.0769 0.9796 -0.1857
vn 0.1484 0.9217 -0.3584
vn 0.2142 0.8286 -0.5172
vn 0.2718 0.7041 -0.6561
vn 0.3189 0.5528 -0.7699
vn 0.3539 0.3805 -0.8544
vn 0.3754 0.1939 -0.9063
vn 0.2910 -0.6494 -0.7026
vn 0.4630 0.5528 -0.6929
vn 0.5138 0.3805 -0.7689
vn 0.5450 0.1939 -0.8157
vn 0.4225 -0.6494 -0.6323
vn 0.1117 0.9796 -0.1671
vn 0.2155 0.9217 -0.3225
vn 0.3110 0.8286 -0.4654
vn 0.3945 0.7041 -0.5905
vn 0.2743 0.9217 -0.2743
vn 0.3958 0.8286 -0.3958
vn 0.5021 0.7041 -0.5021
vn 0.5893 0.5528 -0.5893
vn 0.6539 0.3805 -0.6539
vn 0.6937 0.1939 -0.6937
vn 0.5377 -0.6494 -0.5377
vn 0.1421 0.9796 -0.1421
vn 0.7689 0.3805 -0.5138
vn 0.8157 0.1939 -0.5450
vn 0.6323 -0.6494 -0.4225
vn 0.1671 0.9796 -0.1117
vn 0.3225 0.9217 -0.2155
vn 0.4654 0.8286 -0.3110
vn 0.5905 0.7041 -0.3945
vn 0.6929 0.5528 -0.4630
vn 0.5172 0.8286 -0.2142
vn 0.6561 0.7041 -0.2718
vn 0.7699 0.5528 -0.3189
vn 0.8544 0.3805 -0.3539
vn 0.9063 0.1939 -0.3754
vn 0.7026 -0.6494 -0.2910
vn 0.1857 0.9796 -0.0769
vn 0.3584 0.9217 -0.1484
vn 0.9622 0.1939 -0.1914
vn 0.7459 -0.6494 -0.1484
vn 0.1971 0.9796 -0.0392
vn 0.3804 0.9217 -0.0757
vn 0.5490 0.8286 -0.1092
vn 0.6965 0.7041 -0.1385
vn 0.8173 0.5528 -0.1626
vn 0.9070 0.3805 -0.1804
vn 0.4178 0.6185 0.6655
vn 0.5335 0.5289 0.6600
vn 0.6293 0.4175 0.6555
vn 0.7011 0.2885 0.6521
vn 0.7455 0.1474 0.6501
vn 0.5045 -0.6105 0.6105
vn 0.1476 0.7196 0.6785
vn 0.2873 0.6828 0.6717
usemtl None
s 1
f 4/1/1 3/2/2 10/3/3 11/4/4
f 5/5/5 4/1/1 11/4/4 12/6/6
f 6/7/7 5/5/5 12/6/6 13/8/8
f 7/9/9 6/7/7 13/8/8 14/10/10
f 73/11/11 7/9/9 14/10/10 15/12/12
f 1/13/13 72/14/14 8/15/15
f 2/16/16 1/13/13 8/15/15 9/17/17
f 3/2/2 2/16/16 9/17/17 10/3/3
f 9/17/17 8/15/15 16/18/18 17/19/19
f 10/3/3 9/17/17 17/19/19 18/20/20
f 11/4/4 10/3/3 18/20/20 19/21/21
f 12/6/6 11/4/4 19/21/21 20/22/22
f 13/8/8 12/6/6 20/22/22 21/23/23
f 14/10/10 13/8/8 21/23/23 22/24/24
f 15/12/12 14/10/10 22/24/24 23/25/25
f 8/15/15 72/26/14 16/18/18
f 21/23/23 20/22/22 28/27/26 29/28/27
f 22/24/24 21/23/23 29/28/27 30/29/28
f 23/25/25 22/24/24 30/29/28 31/30/29
f 16/18/18 72/31/14 24/32/30
f 17/19/19 16/18/18 24/32/30 25/33/31
f 18/20/20 17/19/19 25/33/31 26/34/32
f 19/21/21 18/20/20 26/34/32 27/35/33
f 20/22/22 19/21/21 27/35/33 28/27/26
f 26/34/32 25/33/31 33/36/34 34/37/35
f 27/35/33 26/34/32 34/37/35 35/38/36
f 28/27/26 27/35/33 35/38/36 36/39/37
f 29/28/27 28/27/26 36/39/37 37/40/38
f 30/29/28 29/28/27 37/40/38 38/41/39
f 31/30/29 30/29/28 38/41/39 39/42/40
f 24/32/30 72/43/14 32/44/41
f 25/33/31 24/32/30 32/44/41 33/36/34
f 38/41/39 37/40/38 45/45/42 46/46/43
f 39/42/40 38/41/39 46/46/43 47/47/44
f 32/44/41 72/48/14 40/49/45
f 33/36/34 32/44/41 40/49/45 41/50/46
f 34/37/35 33/36/34 41/50/46 42/51/47
f 35/38/36 34/37/35 42/51/47 43/52/48
f 36/39/37 35/38/36 43/52/48 44/53/49
f 37/40/38 36/39/37 44/53/49 45/45/42
f 43/52/48 42/51/47 50/54/50 51/55/51
f 44/53/49 43/52/48 51/55/51 52/56/52
f 45/45/42 44/53/49 52/56/52 53/57/53
f 46/46/43 45/45/42 53/57/53 54/58/54
f 47/47/44 46/46/43 54/58/54 55/59/55
f 40/49/45 72/60/14 48/61/56
f 41/50/46 40/49/45 48/61/56 49/62/57
f 42/51/47 41/50/46 49/62/57 50/54/50
f 55/59/55 54/58/54 62/63/58 63/64/59
f 48/61/56 72/65/14 56/66/60
f 49/62/57 48/61/56 56/66/60 57/67/61
f 50/54/50 49/62/57 57/67/61 58/68/62
f 51/55/51 50/54/50 58/68/62 59/69/63
f 52/56/52 51/55/51 59/69/63 60/70/64
f 53/57/53 52/56/52 60/70/64 61/71/65
f 54/58/54 53/57/53 61/71/65 62/63/58
f 59/69/63 58/68/62 66/72/66 67/73/67
f 60/70/64 59/69/63 67/73/67 68/74/68
f 61/71/65 60/70/64 68/74/68 69/75/69
f 62/63/58 61/71/65 69/75/69 70/76/70
f 63/64/59 62/63/58 70/76/70 71/77/71
f 56/66/60 72/78/14 64/79/72
f 57/67/61 56/66/60 64/79/72 65/80/73
f 58/68/62 57/67/61 65/80/73 66/72/66
f 23/25/25 31/30/29 39/42/40 47/47/44 55/59/55 63/64/59 71/77/71 73/11/11 15/12/12
f 64/79/72 72/78/14 71/77/71 70/76/70 69/75/69 68/74/68 67/73/67 66/72/66 65/80/73
f 1/13/13 2/16/16 3/2/2 4/1/1 5/5/5 6/7/7 7/9/9 73/11/11 72/14/14
f 73/11/11 71/77/71 72/14/14
